<?xml version="1.0" encoding="UTF-8"?><svg xmlns="http://www.w3.org/2000/svg" xmlns:xlink="http://www.w3.org/1999/xlink" viewBox="0 0 400 355.76"><defs><style>.cls-1{fill:url(#Degradado_sin_nombre_55-2);}.cls-2{fill:#fff;}.cls-3{fill:none;stroke:#e88995;stroke-linecap:round;stroke-miterlimit:10;stroke-width:2px;}.cls-4{isolation:isolate;}.cls-5{fill:url(#Degradado_sin_nombre_55);}.cls-6{fill:#34b285;}.cls-7{fill:#75d3b4;}.cls-8{fill:#f5b101;}.cls-9{fill:#e09800;}.cls-10{fill:#98f4d7;}.cls-11{fill:#f9b500;}.cls-12{fill:#dff6ed;mix-blend-mode:multiply;}.cls-13{clip-path:url(#clippath);}.cls-14{fill:#0c9;}.cls-15{fill:#f6b201;}.cls-16{fill:#ffde56;}.cls-17{fill:#c37f00;}.cls-18{fill:#008760;}</style><linearGradient id="Degradado_sin_nombre_55" x1="26375.2" y1="565.54" x2="26401.95" y2="535.2" gradientTransform="translate(24373.61 10744.53) rotate(-154.55) scale(1 -1.67)" gradientUnits="userSpaceOnUse"><stop offset="0" stop-color="#f9b1b3"/><stop offset=".31" stop-color="#f8adaf"/><stop offset=".57" stop-color="#f6a3a5"/><stop offset=".8" stop-color="#f29295"/><stop offset="1" stop-color="#ee7d80"/></linearGradient><clipPath id="clippath"><ellipse class="cls-7" cx="271.47" cy="96.59" rx="40.28" ry="106.75" transform="translate(-13.99 135.78) rotate(-27.4)"/></clipPath><linearGradient id="Degradado_sin_nombre_55-2" x1="212.49" y1="207.83" x2="101.89" y2="318.44" gradientTransform="matrix(1, 0, 0, 1, 0, 0)" xlink:href="#Degradado_sin_nombre_55"/></defs><g class="cls-4"><g id="Capa_1"><path class="cls-12" d="M351.04,44.86c-15.9-13.68-35.75-22.85-56.59-25.77-17.59-2.47-35.69-.54-52.42,5.61-4.76,1.75-9.39,4.44-14.01,7.62-20.62,14.23-40.7,38.35-68.2,42.88-33.91,5.58-92.21-4.14-134.63,33.02-12.18,10.67-20.22,26.14-23.67,42.44-2.81,13.25-1.47,27.11,1.93,40.04,5.52,20.96,16.08,40.09,29.58,57.34,7.76,9.91,16.35,19.26,25.34,28,18.45,17.94,38.82,33.87,60.86,47.1,33.55,20.14,71.96,34.09,111.06,32.51,8.8-.37,17.56-1.54,26.04-3.73,10.45-2.7,20.38-6.94,29.88-11.92,13.17-6.92,25.46-15.33,36.71-24.79,39.44-33.1,67.88-80.21,75.29-131.89,8.35-58.26-13.59-109.55-47.18-138.45Z"/><g><g><path class="cls-16" d="M60.62,235.71c.22-.06,.45-.11,.67-.18,3.42-1.16,6.94-1.53,10.52-1.37,2.39,.11,4.72,.53,6.98,1.32,.97,.34,1.93,.72,2.82,1.25,1.29,.76,2.51,1.62,3.5,2.76,.95,1.09,1.69,2.31,2.06,3.72,.12,.45,.23,.9,.35,1.35,.03,.12,.08,.24,.03,.37-.02,.08,0,.16,.03,.24v-.02c.21,2.54-.62,4.76-2.05,6.8-2.76,3.93-6.61,6.41-11,8.12-2.4,.93-4.87,1.61-7.42,1.97-.25,.04-.5,.09-.75,.07-.17-.04-.34-.12-.53-.08-.06,0-.13,0-.19,0-3.09,.14-6.14-.08-9.13-.95-2.81-.82-5.39-2.08-7.39-4.28-2.65-2.93-3.25-6.28-1.86-9.97,1.09-2.92,3.13-5.1,5.53-6.99,2.36-1.85,4.99-3.2,7.83-4.11Z"/><path class="cls-17" d="M66.23,261.96c.82-.03,1.62-.2,2.43-.35,1.49-.28,2.95-.71,4.39-1.18,2.13-.69,4.15-1.63,6.06-2.8,1.42-.87,2.75-1.87,3.95-3.03,.82-.79,1.57-1.63,2.22-2.57,.36-.52,.7-1.05,.99-1.61,.74-1.44,1.18-2.96,1.23-4.59,0-.23-.04-.47,.08-.68,.04,.12,.08,.24,.11,.36,.23,1.09,.46,2.18,.68,3.27,.34,1.66,.11,3.26-.52,4.82-.92,2.26-2.48,4.03-4.3,5.6-1.8,1.55-3.81,2.77-5.96,3.76-5.47,2.5-11.2,3.58-17.2,3.12-2.3-.17-4.54-.64-6.69-1.48-1.76-.69-3.37-1.62-4.73-2.96-1.24-1.23-2.07-2.69-2.39-4.42-.18-.97-.4-1.94-.6-2.91-.04-.18-.14-.36-.02-.55,.34,.13,.39,.48,.53,.75,1.34,2.61,3.49,4.32,6.12,5.5,4.08,1.82,8.38,2.23,12.79,1.95,.15,0,.29,0,.44-.01h0c.13-.02,.27-.05,.4,.03Z"/><path class="cls-11" d="M71.89,258.46c-.59,.29-1.23,.44-1.86,.58-.8,.18-1.6,.34-2.41,.47-1.71,.26-3.42,.41-5.15,.35-1.92-.06-3.81-.34-5.64-.91-.84-.26-1.68-.54-2.44-1-.4-.24-.82-.44-1.21-.68-1.58-.96-2.86-2.23-3.61-3.92-.76-1.72-.9-3.52-.33-5.35,.28-.89,.63-1.74,1.13-2.52,.46-.72,.98-1.41,1.57-2.04,1.18-1.24,2.5-2.31,3.96-3.19,.87-.52,1.75-1.01,2.67-1.42,.88-.39,1.77-.77,2.7-1.04,.87-.26,1.73-.55,2.61-.74,1.15-.25,2.3-.48,3.49-.51,.71,.15,1.42,.01,2.13,.03,3.42,.07,6.65,.83,9.53,2.72,3.59,2.35,5.09,6.16,3.44,10.2-.94,2.29-2.55,4.09-4.48,5.61-1.75,1.38-3.69,2.41-5.79,3.16-.12,.04-.25,.07-.3,.21Z"/><path class="cls-9" d="M71.89,258.46c-.05-.13,0-.21,.12-.24,.55-.15,1.05-.42,1.57-.65,.84-.38,1.65-.83,2.43-1.32,.27-.17,.55-.31,.8-.49,1.3-.96,2.53-1.99,3.58-3.24,.77-.91,1.37-1.92,1.86-2.98,.52-1.13,.75-2.34,.68-3.61-.03-.57-.15-1.12-.26-1.67-.08-.42-.31-.82-.49-1.22-.46-1.04-1.16-1.89-2-2.64-.56-.5-1.14-.99-1.83-1.32-.25-.12-.49-.25-.72-.39-.79-.5-1.67-.76-2.54-1.07-.79-.28-1.62-.45-2.44-.59-.84-.15-1.7-.29-2.56-.3-.71,0-1.43-.09-2.14-.03-.17,.01-.34,0-.5-.03-.04,0-.07-.09-.1-.14,.1,0,.19,0,.29,0,.05-.01,.11-.03,.16-.04h.3c.05-.02,.1-.03,.16-.03h.58c.05-.01,.1-.02,.16-.03l.12,.04c.06,0,.11-.02,.16-.03h.3s.1-.02,.15-.02l.13,.04s.1-.03,.15-.03l.13,.04s.1-.02,.15-.03l.13,.04c.05-.01,.1-.02,.15-.03l.13,.04c.05-.01,.1-.02,.15-.03l.13,.04s.1-.02,.15-.03l.13,.04s.1-.03,.15-.03l.52,.1c.05,0,.11-.01,.16-.02l.13,.04c.05-.01,.1-.02,.15-.03l.23,.08c.06,0,.11,0,.17-.02l.13,.05s.1-.02,.15-.03l.24,.09c.05,0,.11-.01,.16-.02l.23,.09c.05,0,.11-.01,.16-.02l.23,.09c.05,0,.11-.01,.16-.02l.24,.1c.05,0,.1-.02,.15-.02l.35,.14c.05,0,.11,0,.16-.02l.24,.1c.09-.03,.17,.05,.26,.03,.66,.22,1.31,.43,1.96,.66,.16,.05,.31,.14,.46,.22,.56,.3,1.12,.58,1.66,.91,1.55,.92,2.8,2.14,3.58,3.78,.67,1.39,.92,2.87,.68,4.42-.23,1.49-.82,2.83-1.65,4.05-.84,1.23-1.85,2.33-3.03,3.25-.03,.03-.06,.06-.09,.09-.05,.02-.09,.04-.14,.06l-.62,.53s-.09,.04-.14,.05l-.09,.11s-.09,.04-.14,.05l-.09,.11s-.09,.04-.14,.05l-.09,.11s-.09,.04-.14,.05l-.1,.11s-.09,.04-.14,.05l-.49,.32s-.1,.04-.15,.05l-.1,.1s-.09,.04-.14,.05l-.26,.16s-.1,.04-.15,.05c-.33,.24-.7,.4-1.06,.58-.05,.02-.1,.04-.15,.05l-.26,.15s-.09,.04-.14,.04l-.6,.27s-.1,.03-.15,.05l-.6,.26s-.1,.03-.15,.04h-.02c-.05,.02-.1,.04-.16,.06l-.94,.35Z"/><path class="cls-11" d="M67.82,236.49l-.16,.04,.16-.04Z"/><path class="cls-11" d="M68.27,236.46l-.16,.03,.16-.03Z"/><path class="cls-11" d="M69,236.43l-.16,.03,.16-.03Z"/><path class="cls-11" d="M69.29,236.43l-.16,.03,.16-.03Z"/><path class="cls-11" d="M69.73,236.41l-.15,.03,.15-.03Z"/><path class="cls-11" d="M70.02,236.42l-.15,.03,.15-.03Z"/><path class="cls-11" d="M72.83,258.11l.16-.05-.16,.05Z"/><path class="cls-11" d="M73,258.06l.15-.04-.15,.04Z"/><path class="cls-11" d="M73.75,257.75l.15-.05-.15,.05Z"/><path class="cls-11" d="M74.5,257.43l.14-.04-.14,.04Z"/><path class="cls-11" d="M74.9,257.23l.15-.05-.15,.05Z"/><path class="cls-11" d="M76.11,256.6l.15-.05-.15,.05Z"/><path class="cls-11" d="M76.52,256.38l.14-.05-.14,.05Z"/><path class="cls-11" d="M76.75,256.23l.15-.05-.15,.05Z"/><path class="cls-11" d="M77.39,255.85l.14-.05-.14,.05Z"/><path class="cls-11" d="M77.62,255.69l.14-.05-.14,.05Z"/><path class="cls-11" d="M77.85,255.53l.14-.05-.14,.05Z"/><path class="cls-11" d="M78.08,255.37l.14-.05-.14,.05Z"/><path class="cls-11" d="M78.32,255.21l.14-.05-.14,.05Z"/><path class="cls-11" d="M79.07,254.62l.14-.06-.14,.06Z"/><path class="cls-16" d="M60.95,253.81c.2-.44,.29-.9,.53-1.29,.19-.31,.26-.36,.61-.26,.72,.2,1.45,.26,2.18,.27,.52,0,1.05-.04,1.57-.07,.12,0,.25-.05,.37-.09,.12-.04,.17-.13,.15-.24-.11-.62-.23-1.24-.36-1.86-.06-.29-.16-.57-.18-.86,0-.14-.1-.22-.26-.22-.21,0-.42,0-.63,0-1.03,0-2.06,.03-3.08-.2-.58-.14-1.07-.48-1.57-.78-.02-.01-.03-.03-.04-.04-.46-.46-.64-1.59-.38-2.2,.42-.99,1.16-1.69,2.08-2.21,.64-.37,1.3-.68,2.02-.88,.28-.08,.3-.12,.23-.41-.09-.37-.21-.73-.23-1.11,0-.2,.01-.25,.22-.32,.28-.08,.57-.16,.85-.23,.35-.08,.7-.15,1.05-.21,.2-.04,.26,0,.32,.2,.09,.3,.16,.61,.2,.92,.07,.53,.11,.53,.65,.48,1.39-.14,2.77-.1,4.14,.22,.23,.05,.27,.14,.18,.36-.15,.35-.28,.7-.44,1.04-.17,.35-.18,.34-.57,.27-1.01-.2-2.03-.33-3.07-.25-.1,0-.21,.02-.31,.04-.26,.03-.29,.08-.23,.32,.18,.82,.34,1.65,.53,2.47,.15,.62,.1,.59,.74,.57,.99-.04,1.98-.08,2.95,.14,.43,.09,.85,.22,1.24,.44,.96,.56,1.31,1.62,.87,2.66-.26,.61-.65,1.12-1.2,1.5-.78,.55-1.58,1.04-2.51,1.29-.04,.01-.08,.02-.12,.04-.29,.11-.32,.16-.3,.46,.03,.36,.13,.7,.21,1.05,.07,.29,.05,.36-.22,.41-.66,.15-1.32,.28-1.98,.4-.19,.04-.26-.02-.31-.22-.08-.35-.14-.7-.22-1.05-.08-.3-.16-.35-.45-.3-1.17,.19-2.34,.2-3.52,.12-.51-.03-1-.1-1.49-.26-.08-.02-.15-.06-.24-.1Z"/><path class="cls-8" d="M63.41,247.03c-.61-.31-.62-.88-.46-1.37,.04-.12,.11-.23,.19-.32,.37-.41,.84-.7,1.37-.86,.18-.06,.29,0,.33,.18,.17,.8,.34,1.6,.51,2.4,.02,.11,.01,.23-.12,.24-.61,.03-1.21-.06-1.8-.25-.02,0-.04-.02-.03-.01Z"/><path class="cls-15" d="M70.21,250.77s-.1,.12-.17,.19c-.32,.35-.72,.57-1.14,.77-.2,.1-.31,.04-.37-.19-.09-.32-.16-.65-.23-.98-.08-.39-.17-.78-.23-1.17-.04-.23,.05-.32,.27-.32,.51,0,1,.09,1.49,.23,.06,.02,.12,.05,.17,.09,.34,.27,.46,.94,.22,1.38Z"/></g><path class="cls-2" d="M250.83,202.86h96.59c.05-.74,.18-3.99-2.72-6.63-2.87-2.61-7.58-3.58-12.05-2.52,.04-.19,.76-4.32-2.92-6.78-3.13-2.1-8.08-2.06-11.66,.32,0-6.08-5.64-11.18-12.83-11.83-7.58-.69-14.76,3.75-15.94,10.1-3.98-2.75-9.41-3.61-14.19-2.21-6.14,1.8-8.27,6.45-8.55,7.1-.77-.08-6.73-.64-11.47,3-4.92,3.78-4.35,8.89-4.28,9.47Z"/><path class="cls-2" d="M205.96,320.45h42.38c.02-.4,.08-2.16-1.19-3.58-1.26-1.41-3.32-1.94-5.29-1.36,.02-.1,.33-2.33-1.28-3.67-1.37-1.14-3.54-1.12-5.12,.17,0-3.28-2.47-6.04-5.63-6.4-3.32-.37-6.48,2.03-6.99,5.46-1.75-1.49-4.13-1.95-6.22-1.19-2.69,.97-3.63,3.49-3.75,3.84-.34-.05-2.95-.35-5.03,1.62-2.16,2.04-1.91,4.8-1.88,5.12Z"/><path class="cls-2" d="M28.84,167.81h54.25c.03-.51,.1-2.76-1.53-4.58-1.61-1.8-4.25-2.48-6.77-1.75,.02-.13,.43-2.99-1.64-4.69-1.76-1.45-4.54-1.43-6.55,.22,0-4.2-3.17-7.73-7.2-8.19-4.26-.48-8.29,2.6-8.95,6.99-2.24-1.9-5.28-2.5-7.97-1.53-3.45,1.24-4.65,4.47-4.8,4.91-.43-.06-3.78-.45-6.44,2.07-2.76,2.62-2.44,6.15-2.4,6.55Z"/><path class="cls-2" d="M3.3,258.89H77.05c.04-.7,.14-3.75-2.08-6.23-2.19-2.45-5.78-3.37-9.2-2.37,.03-.18,.58-4.06-2.23-6.38-2.39-1.98-6.17-1.94-8.9,.3,0-5.72-4.31-10.51-9.79-11.13-5.79-.65-11.27,3.53-12.17,9.5-3.04-2.59-7.18-3.4-10.83-2.08-4.69,1.69-6.32,6.07-6.53,6.68-.59-.08-5.14-.61-8.76,2.82-3.76,3.56-3.32,8.36-3.26,8.9Z"/><path class="cls-5" d="M126.17,263.77l16.46,7.32,27.89-54.88c2.86-6.76,2.33-13.23-1.03-15.54-3.91-2.69-10.89,.77-15.43,8.22-9.3,18.29-18.59,36.59-27.89,54.88Z"/><g><g><path class="cls-18" d="M93.36,134.91c-15.74,13.02-22.66,34.55-15.92,54.45,1.09,3.23,2.52,6.36,4.29,9.36,3.47,5.89,8.07,10.91,13.44,14.89,11.43,8.48,25.87,11.28,39.57,8.47-7.64-8.35-16.95-20.23-25.01-35.93-10.27-20.02-14.49-38.44-16.37-51.24Z"/><path class="cls-10" d="M237.41,113.89c-12.57-19.86-25.72-51.81-23.38-102.59-8.73,18.3-23.8,44.46-49.05,70.32-22.34,22.88-45.23,37.92-63.23,47.62-3.03,1.63-5.83,3.54-8.41,5.67,2.04,13.76,6.74,33.72,18.45,55.12,7.42,13.57,15.73,24.17,22.93,32.04,3.18-.65,6.31-1.6,9.36-2.86,17.88-7.36,39.04-14.49,63.19-19.85,39.3-8.72,100.59-6.52,104.27-6.24,.29,.02,1.24,.17,1.6-.33,3.09-4.22-49.17-36.95-75.73-78.91Z"/><g><ellipse class="cls-7" cx="271.47" cy="96.59" rx="40.28" ry="106.75" transform="translate(-13.99 135.78) rotate(-27.4)"/><g class="cls-13"><circle class="cls-6" cx="241.92" cy="115.15" r="32.91"/></g></g></g><path class="cls-18" d="M198.1,201.53c.14,9.4,.73,19.65,2.01,30.59,1.85,15.84,4.77,30.05,8.02,42.39,2.04,4.81,.38,10.22-3.47,12.69-4.58,2.95-11.54,1.27-14.53-4.34-3.51-4.67-7.02-9.8-10.41-15.4-11.69-19.3-18.24-38.04-22.03-53.54,5.75-2.63,12.47-5.29,20.08-7.61,7.38-2.25,14.24-3.76,20.33-4.79Z"/><path class="cls-18" d="M103.7,128.19c1.85,12.07,5.4,27.51,12.49,44.47,8.56,20.48,19.27,35.97,27.89,46.57,3.25-1.29,6.5-2.57,9.76-3.86-7.89-10.37-16.7-23.71-24.63-40.11-9.37-19.36-14.74-37.19-17.92-51.41-2.53,1.44-5.05,2.89-7.58,4.33Z"/></g><g><g><line class="cls-18" x1="303.55" y1="43.25" x2="330.8" y2="8.22"/><path class="cls-14" d="M303.54,44.24c-.21,0-.43-.07-.61-.21-.43-.34-.51-.96-.17-1.4l27.25-35.02c.34-.43,.97-.51,1.4-.17,.43,.34,.51,.96,.17,1.4l-27.25,35.02c-.2,.25-.49,.38-.79,.38Z"/></g><g><line class="cls-18" x1="326.3" y1="66.96" x2="386.39" y2="32.27"/><path class="cls-14" d="M326.3,67.96c-.34,0-.68-.18-.86-.5-.28-.48-.11-1.09,.37-1.36l60.09-34.69c.48-.28,1.09-.11,1.36,.37,.28,.48,.11,1.09-.37,1.36l-60.09,34.69c-.16,.09-.33,.13-.5,.13Z"/></g><g><line class="cls-18" x1="335.84" y1="100.94" x2="380.23" y2="94.65"/><path class="cls-14" d="M335.84,101.94c-.49,0-.92-.36-.99-.86-.08-.55,.3-1.05,.85-1.13l44.39-6.29c.55-.08,1.05,.3,1.13,.85s-.3,1.05-.85,1.13l-44.39,6.29s-.09,0-.14,0Z"/></g></g><path class="cls-1" d="M213.45,257.62c-1.41-3.24-4.61-4.48-5.38-4.76,5.05-4.3,6.48-10.64,4.07-14.82-1.73-3-4.96-4.06-6.16-4.39,5.61-4.35,6.99-10.9,4.51-14.6-1.83-2.73-5.35-3.28-6.46-3.41,5.1-4.1,5.61-10.41,2.95-13.31-2.54-2.76-7.39-1.78-7.72-1.7-5.72,6.39-13.98,15.13-24.61,24.75-45.8,41.46-102.17,63.65-102.17,63.65,7.55,6.6,16.15,13.52,25.85,20.41,8.87,6.3,17.44,11.72,25.48,16.38,15.59-7.47,33-17.22,51.31-29.68,12.13-8.25,34.73-26.95,34.73-26.95,3.84-3.05,5.22-7.87,3.61-11.57Z"/><g><path class="cls-3" d="M206.56,233.82c-9.08,7.73-4.69,3.89-16.04,13.96"/><path class="cls-3" d="M180.25,238.6c10.91-10.4,14.6-14.39,24.31-23.41"/><path class="cls-3" d="M209.16,251.84c-2.6,1.99-4.15,2.84-8.29,5.84"/></g><g><path class="cls-16" d="M339.16,279.36c.3,.28,.59,.58,.91,.84,5.06,4.16,8.79,8.98,11.62,14.22,1.89,3.49,3.16,7.11,3.71,10.85,.24,1.61,.38,3.23,.2,4.84-.26,2.33-.73,4.63-1.92,6.78-1.14,2.06-2.69,3.89-4.92,5.32-.71,.45-1.41,.91-2.12,1.36-.19,.12-.37,.27-.64,.28-.16,.03-.29,.1-.4,.19h.03c-4.38,1.91-9.12,2.12-14.03,1.37-9.49-1.45-17.31-5.4-24.21-10.61-3.76-2.84-7.15-5.96-10.02-9.39-.28-.34-.59-.66-.78-1.04-.08-.27-.07-.57-.31-.81-.07-.09-.12-.18-.18-.27-2.95-4.34-5.2-8.87-6.23-13.7-.97-4.56-.95-9.05,1.28-13.32,2.96-5.67,8.49-8.66,16.35-9.02,6.21-.29,11.92,1.24,17.42,3.48,5.39,2.2,10.1,5.12,14.23,8.62Z"/><path class="cls-17" d="M296.75,304.11c.77,1.16,1.78,2.2,2.75,3.26,1.8,1.96,3.85,3.77,5.94,5.55,3.09,2.62,6.55,4.91,10.33,6.91,2.81,1.49,5.77,2.75,8.9,3.73,2.13,.67,4.31,1.21,6.56,1.55,1.25,.19,2.5,.34,3.76,.4,3.24,.14,6.37-.19,9.34-1.15,.42-.14,.81-.35,1.3-.32-.18,.13-.35,.27-.55,.38-1.76,1.02-3.53,2.05-5.3,3.07-2.7,1.54-5.77,2.24-9.13,2.32-4.87,.11-9.42-.99-13.83-2.6-4.35-1.6-8.31-3.69-11.95-6.15-9.26-6.25-16.19-13.79-20.6-22.69-1.69-3.41-2.79-6.92-3.15-10.54-.3-2.96-.02-5.87,1.22-8.66,1.14-2.57,3.05-4.68,5.89-6.25,1.59-.88,3.14-1.81,4.71-2.71,.29-.16,.53-.43,.97-.38,.06,.57-.52,.87-.89,1.24-3.54,3.59-4.75,7.76-4.57,12.28,.27,7.02,3.29,13.44,7.63,19.58,.14,.2,.26,.42,.41,.63h-.01c.16,.17,.32,.34,.29,.58Z"/><path class="cls-11" d="M307.98,310.01c-1.03-.67-1.86-1.48-2.67-2.3-1.02-1.03-2.01-2.08-2.94-3.16-1.96-2.28-3.72-4.65-5.12-7.16-1.56-2.79-2.7-5.68-3.28-8.67-.27-1.37-.48-2.75-.33-4.14,.08-.72,.08-1.45,.16-2.17,.34-2.88,1.52-5.52,3.93-7.68,2.44-2.19,5.56-3.52,9.36-3.88,1.85-.17,3.69-.2,5.52,.02,1.71,.2,3.4,.51,5.04,.96,3.26,.9,6.33,2.11,9.2,3.65,1.7,.91,3.34,1.86,4.88,2.93,1.48,1.02,2.93,2.05,4.23,3.21,1.22,1.08,2.5,2.13,3.61,3.28,1.44,1.49,2.87,3,3.95,4.67,.34,1.11,1.21,2.04,1.8,3.07,2.85,4.95,4.29,10.07,3.4,15.4-1.11,6.64-6.68,11.22-15.38,11.42-4.95,.11-9.59-1.05-14.02-2.86-4.02-1.64-7.57-3.76-10.74-6.3-.18-.14-.34-.31-.63-.29Z"/><path class="cls-9" d="M307.98,310.01c.18-.15,.39-.12,.54,.02,.75,.7,1.67,1.24,2.53,1.83,1.41,.97,2.93,1.84,4.49,2.65,.53,.28,1.03,.6,1.59,.84,2.86,1.26,5.79,2.36,8.95,3.08,2.31,.53,4.65,.75,6.98,.77,2.49,.03,4.87-.41,7.1-1.32,1.01-.41,1.89-.93,2.79-1.43,.69-.38,1.2-.97,1.77-1.48,1.47-1.32,2.39-2.87,3.01-4.54,.42-1.12,.78-2.26,.78-3.46,0-.43,.02-.86,.08-1.28,.21-1.45-.08-2.89-.28-4.32-.18-1.31-.6-2.6-1.06-3.87-.47-1.3-.95-2.62-1.7-3.86-.62-1.02-1.08-2.1-1.81-3.09-.17-.23-.28-.49-.38-.74-.02-.06,.1-.16,.16-.24,.09,.14,.17,.27,.26,.4,.07,.07,.14,.14,.2,.21l.26,.42c.07,.06,.14,.13,.2,.2l.5,.84c.07,.06,.14,.13,.19,.2l.04,.2c.06,.07,.13,.15,.2,.22l.25,.43c.07,.06,.14,.12,.18,.19l.05,.22c.07,.06,.13,.12,.18,.2l.05,.21c.07,.06,.13,.13,.18,.2l.04,.21c.07,.06,.13,.13,.19,.2l.04,.21c.07,.06,.13,.13,.18,.2l.04,.21c.07,.06,.13,.13,.18,.2l.04,.21c.07,.06,.13,.12,.18,.2l.28,.8c.05,.08,.12,.15,.18,.22l.03,.21c.07,.06,.13,.13,.18,.2l.05,.39c.05,.08,.11,.15,.18,.22l.03,.21c.07,.06,.13,.13,.18,.2l.05,.4c.06,.07,.12,.14,.18,.21l.04,.39c.06,.07,.11,.15,.18,.22l.04,.39c.06,.07,.11,.15,.18,.22l.03,.4c.06,.07,.12,.14,.17,.21l.04,.59c.05,.08,.11,.15,.17,.22l.02,.41c.13,.11,.06,.27,.17,.39,.18,1.08,.36,2.16,.53,3.24,.04,.26,.02,.53,0,.79-.06,.99-.08,1.98-.19,2.96-.32,2.81-1.43,5.38-3.7,7.54-1.93,1.84-4.36,3.15-7.36,3.79-2.88,.62-5.81,.62-8.73,.21-2.95-.41-5.81-1.16-8.5-2.28-.07-.03-.16-.05-.24-.07-.08-.05-.15-.11-.23-.16l-1.5-.55c-.08-.05-.15-.1-.22-.16l-.27-.07c-.08-.05-.15-.1-.22-.16l-.27-.07c-.08-.05-.15-.1-.22-.16l-.27-.07c-.08-.05-.15-.1-.22-.16l-.27-.07c-.08-.05-.15-.1-.21-.16l-1.01-.5c-.08-.06-.15-.12-.23-.17l-.27-.07c-.08-.05-.15-.1-.21-.16l-.52-.27c-.08-.06-.15-.12-.22-.18-.72-.32-1.33-.76-1.97-1.16-.08-.06-.15-.12-.22-.18l-.51-.28c-.08-.05-.15-.1-.2-.17l-1.01-.69c-.07-.06-.15-.12-.22-.18l-.99-.69c-.07-.06-.14-.12-.21-.18l-.02-.02c-.08-.06-.15-.13-.23-.19l-1.44-1.13Z"/><path class="cls-11" d="M344.01,290.18l-.2-.21,.2,.21Z"/><path class="cls-11" d="M344.47,290.81l-.2-.2,.2,.2Z"/><path class="cls-11" d="M345.16,291.85l-.19-.2,.19,.2Z"/><path class="cls-11" d="M345.41,292.26c-.07-.07-.13-.14-.2-.22,.07,.07,.13,.14,.2,.22Z"/><path class="cls-11" d="M345.84,292.88l-.18-.19,.18,.19Z"/><path class="cls-11" d="M346.07,293.29l-.18-.2,.18,.2Z"/><path class="cls-11" d="M309.43,311.14l.23,.19-.23-.19Z"/><path class="cls-11" d="M309.68,311.35l.21,.18-.21-.18Z"/><path class="cls-11" d="M310.88,312.22l.22,.18-.22-.18Z"/><path class="cls-11" d="M312.11,313.09l.2,.17-.2-.17Z"/><path class="cls-11" d="M312.82,313.54l.22,.18-.22-.18Z"/><path class="cls-11" d="M315.01,314.88l.22,.18-.22-.18Z"/><path class="cls-11" d="M315.75,315.32c.07,.05,.14,.11,.21,.16l-.21-.16Z"/><path class="cls-11" d="M316.23,315.56l.23,.17-.23-.17Z"/><path class="cls-11" d="M317.47,316.23c.07,.05,.14,.11,.21,.16-.07-.05-.14-.11-.21-.16Z"/><path class="cls-11" d="M317.96,316.46l.22,.16-.22-.16Z"/><path class="cls-11" d="M318.45,316.69l.22,.16-.22-.16Z"/><path class="cls-11" d="M318.94,316.92c.07,.05,.15,.11,.22,.16l-.22-.16Z"/><path class="cls-11" d="M319.44,317.15c.07,.05,.15,.11,.22,.16l-.22-.16Z"/><path class="cls-11" d="M321.15,317.87l.23,.16-.23-.16Z"/><path class="cls-16" d="M306.84,291.36c.97,.01,1.86-.16,2.8-.06,.73,.08,.87,.14,1,.71,.27,1.15,.79,2.24,1.42,3.3,.44,.76,.98,1.48,1.5,2.21,.12,.17,.31,.32,.48,.47,.17,.15,.38,.17,.57,.06,1.02-.56,2.03-1.12,3.04-1.69,.47-.27,.88-.59,1.4-.8,.24-.1,.31-.29,.17-.51-.19-.3-.38-.6-.56-.9-.89-1.48-1.86-2.94-2.31-4.54-.26-.93-.06-1.84,.04-2.75,0-.03,.03-.06,.04-.09,.43-.96,2.31-1.92,3.63-1.94,2.16-.02,4.05,.6,5.79,1.57,1.22,.68,2.36,1.43,3.35,2.33,.39,.36,.49,.35,.94,.07,.59-.36,1.13-.76,1.81-1.03,.36-.14,.47-.14,.76,.12,.4,.35,.79,.71,1.16,1.08,.45,.45,.87,.91,1.3,1.37,.25,.26,.24,.38-.08,.59-.47,.32-.96,.61-1.49,.87-.9,.44-.86,.5-.3,1.24,1.46,1.9,2.59,3.91,3.21,6.07,.1,.36-.02,.48-.5,.48-.75,.01-1.51,.05-2.26,.03-.79-.02-.78-.04-.98-.65-.52-1.58-1.17-3.13-2.22-4.56-.11-.14-.22-.29-.34-.43-.28-.34-.39-.36-.79-.13-1.33,.77-2.67,1.54-3.98,2.33-1,.61-.98,.52-.37,1.43,.94,1.39,1.86,2.79,2.33,4.32,.21,.68,.35,1.36,.28,2.06-.17,1.74-1.77,2.91-4.04,2.94-1.33,.02-2.58-.23-3.75-.76-1.67-.76-3.25-1.61-4.51-2.78-.06-.05-.11-.1-.17-.15-.45-.35-.56-.36-1.09-.13-.63,.27-1.15,.64-1.71,.98-.47,.29-.6,.3-.93-.04-.83-.85-1.64-1.71-2.44-2.58-.23-.25-.18-.39,.13-.58,.56-.33,1.15-.64,1.69-.99,.47-.3,.49-.44,.15-.84-1.36-1.56-2.4-3.24-3.28-4.98-.38-.75-.69-1.5-.83-2.29-.02-.12-.02-.25-.03-.42Z"/><path class="cls-8" d="M321.2,290.56c.01-1.08,1.05-1.44,2.07-1.53,.24-.02,.51,.01,.75,.07,1.07,.27,1.98,.75,2.74,1.41,.26,.22,.24,.42-.04,.59-1.29,.75-2.58,1.51-3.87,2.26-.18,.11-.41,.16-.54-.02-.59-.86-.94-1.78-1.12-2.73,0-.03,0-.07,0-.05Z"/><path class="cls-15" d="M320.38,302.7c-.1-.02-.3-.07-.5-.12-.9-.24-1.65-.68-2.38-1.14-.34-.22-.34-.42,.01-.65,.51-.33,1.04-.64,1.57-.95,.63-.37,1.25-.74,1.91-1.08,.38-.2,.63-.13,.81,.18,.43,.73,.71,1.49,.88,2.28,.02,.1,.02,.2,0,.29-.19,.66-1.29,1.26-2.29,1.19Z"/></g><g><path class="cls-16" d="M247.79,223.26c.18-.07,.37-.14,.55-.23,2.77-1.34,5.72-2.01,8.77-2.25,2.03-.16,4.06-.04,6.05,.39,.86,.19,1.71,.41,2.52,.77,1.17,.51,2.29,1.11,3.25,1.97,.92,.83,1.67,1.78,2.13,2.94,.15,.37,.29,.73,.44,1.1,.04,.1,.09,.2,.06,.31,0,.07,.01,.14,.05,.2h0c.44,2.11-.03,4.09-1.03,5.96-1.93,3.62-4.93,6.12-8.48,8.02-1.93,1.04-3.96,1.87-6.08,2.44-.21,.06-.41,.13-.63,.13-.15-.02-.3-.07-.45-.02-.05,.01-.11,.02-.16,.03-2.6,.44-5.21,.57-7.83,.14-2.47-.4-4.78-1.2-6.7-2.86-2.55-2.2-3.4-4.98-2.61-8.26,.62-2.58,2.12-4.65,3.96-6.5,1.8-1.81,3.89-3.22,6.21-4.3Z"/><path class="cls-17" d="M255.26,244.92c.69-.11,1.36-.34,2.02-.55,1.24-.39,2.42-.91,3.6-1.45,1.74-.8,3.34-1.81,4.84-3,1.12-.89,2.13-1.87,3.03-2.98,.61-.75,1.16-1.55,1.61-2.41,.25-.48,.49-.96,.67-1.47,.48-1.3,.7-2.63,.57-4.02-.02-.19-.08-.39,0-.59,.04,.1,.09,.19,.13,.29,.31,.9,.62,1.8,.92,2.7,.46,1.37,.44,2.75,.06,4.13-.55,2.01-1.68,3.67-3.06,5.19-1.36,1.5-2.94,2.74-4.66,3.8-4.37,2.68-9.12,4.19-14.25,4.43-1.97,.09-3.91-.07-5.82-.56-1.56-.4-3.03-1.02-4.31-2.02-1.18-.92-2.03-2.07-2.49-3.5-.26-.8-.54-1.6-.81-2.4-.05-.15-.15-.29-.08-.46,.3,.08,.38,.37,.53,.58,1.41,2.08,3.41,3.3,5.75,4.02,3.65,1.12,7.33,1.02,11.04,.32,.12-.02,.25-.03,.37-.06h0c.11-.03,.22-.07,.34-.01Z"/><path class="cls-11" d="M259.69,241.37c-.47,.3-1,.5-1.52,.68-.66,.23-1.32,.45-2,.64-1.42,.4-2.86,.7-4.33,.83-1.63,.15-3.26,.1-4.88-.18-.74-.13-1.48-.29-2.17-.59-.36-.16-.74-.29-1.1-.45-1.44-.65-2.65-1.59-3.47-2.95-.83-1.38-1.12-2.89-.83-4.5,.14-.78,.36-1.54,.7-2.25,.32-.66,.68-1.3,1.12-1.89,.87-1.17,1.88-2.21,3.03-3.12,.68-.53,1.38-1.04,2.12-1.48,.71-.42,1.42-.84,2.18-1.16,.71-.31,1.41-.65,2.14-.9,.95-.33,1.9-.64,2.9-.79,.61,.06,1.2-.13,1.8-.2,2.9-.3,5.72,.02,8.35,1.31,3.28,1.62,4.95,4.69,3.97,8.28-.56,2.04-1.74,3.73-3.22,5.22-1.34,1.35-2.88,2.43-4.58,3.28-.1,.05-.2,.08-.23,.21Z"/><path class="cls-9" d="M259.69,241.37c-.06-.1-.02-.18,.08-.22,.45-.18,.85-.46,1.26-.71,.68-.41,1.31-.87,1.92-1.37,.21-.17,.44-.32,.63-.5,1-.95,1.94-1.95,2.7-3.11,.56-.85,.96-1.77,1.27-2.71,.32-1.01,.39-2.06,.21-3.13-.08-.48-.25-.93-.39-1.39-.11-.35-.35-.66-.54-.98-.5-.83-1.18-1.48-1.97-2.03-.53-.37-1.07-.72-1.69-.92-.22-.07-.44-.16-.65-.26-.72-.34-1.5-.47-2.26-.65-.7-.16-1.42-.21-2.13-.25-.73-.04-1.47-.07-2.2,.01-.6,.07-1.22,.07-1.82,.2-.14,.03-.29,.03-.43,.02-.03,0-.07-.07-.1-.11l.24-.04s.09-.03,.13-.05l.25-.03s.08-.03,.13-.04l.49-.06s.08-.03,.13-.04l.11,.02s.09-.03,.14-.04l.25-.03s.08-.03,.12-.04l.12,.02s.08-.03,.12-.04l.12,.02s.08-.03,.13-.04l.11,.02s.08-.03,.13-.04l.11,.02s.08-.03,.13-.04l.11,.02s.08-.03,.13-.04l.12,.02s.08-.03,.12-.04l.45,.03s.09-.02,.14-.04l.11,.02s.08-.03,.13-.04l.21,.05s.09-.02,.14-.03l.11,.03s.08-.03,.12-.04l.21,.05s.09-.02,.13-.03l.21,.05s.09-.02,.13-.03l.21,.05s.09-.02,.13-.03l.21,.06s.08-.02,.13-.03l.31,.09s.09-.02,.14-.03l.21,.06c.07-.03,.15,.02,.22,0,.58,.12,1.16,.23,1.73,.35,.14,.03,.27,.08,.41,.14,.5,.2,1.01,.38,1.5,.6,1.41,.62,2.59,1.53,3.43,2.83,.71,1.11,1.08,2.33,1.04,3.67-.04,1.28-.4,2.48-.98,3.6-.58,1.13-1.32,2.17-2.23,3.07-.03,.03-.04,.06-.07,.08-.04,.02-.07,.04-.11,.06l-.47,.52s-.07,.04-.11,.06l-.07,.1s-.07,.04-.11,.06l-.07,.1s-.07,.04-.11,.06l-.07,.1s-.07,.04-.11,.06l-.07,.1s-.07,.04-.11,.06l-.38,.33-.12,.06-.07,.1s-.07,.04-.11,.06l-.2,.16s-.08,.04-.12,.06c-.25,.24-.56,.41-.84,.6-.04,.02-.08,.04-.12,.06l-.21,.16s-.07,.04-.11,.05l-.48,.29s-.08,.04-.12,.06l-.48,.28s-.08,.04-.12,.05h-.01s-.08,.05-.13,.07l-.76,.39Z"/><path class="cls-11" d="M253.96,223.18l-.13,.05,.13-.05Z"/><path class="cls-11" d="M254.34,223.1l-.13,.04,.13-.04Z"/><path class="cls-11" d="M254.96,223l-.13,.04,.13-.04Z"/><path class="cls-11" d="M255.21,222.98l-.14,.04,.14-.04Z"/><path class="cls-11" d="M255.58,222.91l-.12,.04,.12-.04Z"/><path class="cls-11" d="M255.82,222.89l-.12,.04,.12-.04Z"/><path class="cls-11" d="M260.45,240.97l.13-.06-.13,.06Z"/><path class="cls-11" d="M260.59,240.91l.12-.05-.12,.05Z"/><path class="cls-11" d="M261.19,240.57l.12-.06-.12,.06Z"/><path class="cls-11" d="M261.8,240.22l.11-.05-.11,.05Z"/><path class="cls-11" d="M262.12,240.01l.12-.06-.12,.06Z"/><path class="cls-11" d="M263.08,239.35l.12-.06-.12,.06Z"/><path class="cls-11" d="M263.4,239.13l.11-.06-.11,.06Z"/><path class="cls-11" d="M263.58,238.97l.12-.06-.12,.06Z"/><path class="cls-11" d="M264.08,238.59l.11-.06-.11,.06Z"/><path class="cls-11" d="M264.26,238.43l.11-.06-.11,.06Z"/><path class="cls-11" d="M264.44,238.27l.11-.06-.11,.06Z"/><path class="cls-11" d="M264.62,238.11l.11-.06-.11,.06Z"/><path class="cls-11" d="M264.8,237.95l.11-.06-.11,.06Z"/><path class="cls-11" d="M265.38,237.37l.11-.06-.11,.06Z"/><path class="cls-16" d="M249.94,238.56c.13-.39,.15-.79,.32-1.15,.13-.28,.18-.33,.49-.29,.63,.09,1.25,.07,1.88,0,.45-.05,.89-.14,1.33-.22,.1-.02,.2-.07,.3-.12,.1-.04,.13-.12,.1-.22-.16-.51-.32-1.03-.49-1.54-.08-.24-.19-.46-.24-.71-.02-.12-.11-.18-.24-.16-.18,.03-.36,.05-.53,.07-.87,.1-1.74,.24-2.63,.15-.51-.06-.96-.3-1.41-.5-.02,0-.03-.02-.04-.03-.44-.34-.7-1.28-.55-1.82,.26-.89,.81-1.55,1.53-2.09,.5-.38,1.03-.71,1.62-.96,.23-.1,.24-.14,.15-.37-.11-.3-.25-.6-.31-.92-.03-.17-.01-.22,.15-.29,.23-.1,.46-.2,.7-.28,.29-.1,.58-.2,.87-.29,.17-.05,.22-.03,.29,.14,.1,.25,.2,.5,.26,.76,.12,.45,.15,.44,.6,.34,1.16-.26,2.34-.37,3.53-.25,.2,.02,.24,.09,.19,.29-.09,.31-.16,.62-.26,.93-.11,.32-.12,.31-.46,.29-.88-.06-1.76-.07-2.63,.11-.09,.02-.18,.04-.26,.06-.21,.06-.23,.1-.16,.3,.23,.68,.46,1.36,.7,2.03,.19,.51,.14,.49,.69,.4,.83-.14,1.67-.27,2.52-.19,.38,.03,.74,.1,1.1,.25,.88,.38,1.28,1.23,1.01,2.16-.16,.55-.44,1.01-.86,1.4-.6,.55-1.23,1.04-1.99,1.35-.03,.01-.07,.03-.1,.05-.24,.12-.25,.17-.2,.42,.06,.3,.18,.58,.29,.87,.09,.24,.08,.3-.14,.37-.54,.19-1.09,.37-1.63,.54-.16,.05-.23,0-.28-.16-.1-.29-.19-.58-.3-.86-.09-.24-.17-.28-.41-.21-.97,.28-1.97,.41-2.97,.47-.43,.02-.86,.02-1.29-.06-.07-.01-.13-.04-.22-.06Z"/><path class="cls-8" d="M251.32,232.56c-.55-.19-.61-.68-.53-1.12,.02-.1,.07-.21,.13-.29,.27-.39,.64-.68,1.07-.87,.15-.07,.25-.02,.3,.12,.23,.66,.46,1.32,.68,1.98,.03,.09,.03,.2-.08,.22-.52,.09-1.03,.07-1.55-.02-.02,0-.03-.01-.02,0Z"/><path class="cls-15" d="M257.47,235.02s-.07,.11-.12,.18c-.23,.33-.55,.56-.89,.77-.16,.1-.26,.07-.33-.12-.11-.27-.2-.54-.29-.81-.11-.32-.23-.64-.32-.97-.05-.19,.01-.28,.19-.3,.43-.05,.86-.03,1.28,.04,.05,0,.11,.03,.15,.06,.32,.19,.49,.75,.33,1.14Z"/></g><g><path class="cls-16" d="M69,102.23c.31-.09,.62-.16,.93-.27,4.73-1.7,9.62-2.29,14.61-2.15,3.33,.09,6.59,.62,9.75,1.67,1.36,.45,2.71,.96,3.96,1.67,1.81,1.03,3.53,2.19,4.94,3.76,1.35,1.5,2.4,3.17,2.95,5.14,.17,.62,.35,1.24,.52,1.86,.05,.17,.11,.34,.05,.51-.02,.11,0,.22,.05,.33v-.02c.36,3.52-.76,6.64-2.69,9.51-3.74,5.54-9.05,9.08-15.12,11.56-3.31,1.35-6.74,2.36-10.28,2.92-.35,.05-.69,.13-1.05,.11-.24-.05-.47-.17-.73-.11-.09,.01-.18,.01-.26,.01-4.3,.27-8.56,.03-12.73-1.11-3.94-1.08-7.55-2.76-10.39-5.78-3.76-4.01-4.67-8.67-2.83-13.84,1.45-4.09,4.23-7.18,7.53-9.87,3.24-2.64,6.86-4.57,10.81-5.91Z"/><path class="cls-17" d="M77.43,138.64c1.14-.06,2.26-.32,3.37-.55,2.07-.42,4.09-1.06,6.08-1.74,2.95-1,5.73-2.37,8.37-4.05,1.96-1.25,3.78-2.67,5.42-4.31,1.12-1.11,2.14-2.31,3.03-3.63,.49-.73,.95-1.48,1.34-2.26,.99-2.02,1.58-4.15,1.61-6.42,0-.32-.06-.65,.1-.95,.05,.16,.12,.33,.16,.5,.35,1.51,.69,3.03,1.03,4.54,.51,2.3,.24,4.53-.61,6.72-1.23,3.17-3.35,5.67-5.85,7.9-2.47,2.19-5.23,3.95-8.2,5.37-7.55,3.61-15.5,5.24-23.87,4.75-3.2-.19-6.33-.79-9.35-1.9-2.47-.91-4.73-2.17-6.65-4.01-1.76-1.69-2.94-3.7-3.44-6.1-.28-1.35-.61-2.69-.9-4.03-.05-.25-.2-.5-.04-.76,.48,.18,.56,.66,.75,1.03,1.93,3.61,4.96,5.93,8.65,7.5,5.73,2.44,11.72,2.9,17.85,2.41,.2-.02,.41,0,.61-.03h-.01c.19-.03,.37-.07,.55,.03Z"/><path class="cls-11" d="M85.23,133.64c-.82,.41-1.7,.64-2.58,.85-1.11,.27-2.22,.51-3.35,.7-2.37,.41-4.76,.65-7.16,.62-2.67-.04-5.31-.39-7.88-1.13-1.18-.34-2.35-.72-3.42-1.33-.56-.32-1.15-.59-1.71-.91-2.23-1.29-4.03-3.03-5.12-5.38-1.1-2.38-1.33-4.87-.58-7.45,.36-1.25,.84-2.44,1.51-3.53,.63-1.02,1.33-1.99,2.14-2.87,1.61-1.76,3.42-3.27,5.44-4.54,1.19-.75,2.41-1.44,3.68-2.04,1.22-.57,2.45-1.11,3.74-1.52,1.2-.38,2.39-.81,3.62-1.09,1.59-.37,3.2-.72,4.84-.79,.99,.2,1.97-.01,2.96-.01,4.76,.01,9.28,1,13.33,3.56,5.05,3.19,7.23,8.46,5.03,14.11-1.25,3.21-3.45,5.75-6.11,7.92-2.41,1.96-5.08,3.45-7.99,4.54-.16,.06-.34,.1-.41,.3Z"/><path class="cls-9" d="M85.23,133.64c-.07-.17,0-.29,.16-.34,.76-.22,1.45-.61,2.16-.94,1.17-.54,2.27-1.19,3.35-1.89,.37-.24,.76-.44,1.11-.71,1.79-1.36,3.47-2.83,4.91-4.59,1.05-1.29,1.86-2.7,2.52-4.19,.7-1.58,.99-3.28,.87-5.04-.06-.8-.24-1.56-.39-2.32-.12-.59-.45-1.13-.71-1.69-.66-1.43-1.66-2.6-2.84-3.63-.79-.69-1.61-1.34-2.58-1.79-.35-.16-.69-.34-1.01-.53-1.11-.67-2.35-1.02-3.56-1.43-1.11-.37-2.26-.59-3.41-.77-1.18-.18-2.37-.37-3.57-.35-.99,.01-1.99-.09-2.98,.01-.23,.02-.47,0-.7-.03-.06,0-.1-.12-.15-.19,.13,0,.26-.01,.4-.02,.07-.02,.15-.04,.22-.05h.41c.07-.03,.14-.05,.22-.06h.81c.07-.03,.14-.05,.22-.06l.17,.05c.08-.01,.15-.03,.23-.05h.42c.06-.03,.13-.04,.2-.04l.19,.05c.07-.02,.14-.04,.21-.04l.18,.05c.07-.02,.14-.04,.21-.04l.18,.05c.07-.02,.14-.04,.21-.04l.18,.05c.07-.02,.14-.03,.21-.04l.18,.05c.07-.02,.14-.04,.21-.04l.18,.05c.07-.02,.14-.04,.21-.04l.72,.12c.08,0,.15-.02,.23-.03l.18,.06c.07-.02,.14-.03,.21-.04l.32,.11c.08,0,.15-.01,.23-.03l.18,.06c.07-.02,.14-.03,.21-.04l.33,.12c.07-.01,.15-.02,.22-.03l.33,.12c.07,0,.15-.02,.22-.03l.33,.12c.07,0,.15-.02,.22-.03l.33,.13c.07-.01,.14-.02,.21-.03l.48,.19c.08,0,.15-.01,.23-.03l.34,.14c.13-.04,.24,.06,.36,.04,.92,.29,1.84,.57,2.75,.87,.22,.07,.43,.18,.64,.29,.78,.4,1.57,.79,2.33,1.22,2.18,1.25,3.94,2.92,5.07,5.18,.96,1.93,1.35,3.97,1.06,6.13-.28,2.07-1.08,3.95-2.2,5.68-1.14,1.74-2.52,3.29-4.15,4.6-.05,.04-.08,.08-.12,.13-.06,.03-.13,.06-.19,.09l-.85,.76c-.06,.03-.12,.06-.19,.08l-.13,.15c-.06,.03-.12,.06-.19,.08l-.13,.15c-.06,.03-.12,.06-.19,.08l-.13,.15c-.06,.03-.12,.06-.19,.08l-.13,.15c-.06,.03-.12,.06-.19,.08l-.68,.46c-.07,.03-.13,.05-.2,.08l-.13,.14c-.06,.03-.12,.06-.19,.08l-.36,.23c-.07,.03-.13,.05-.2,.08-.45,.34-.97,.57-1.47,.83-.07,.03-.14,.05-.21,.08l-.36,.22c-.06,.03-.12,.05-.19,.06l-.83,.39c-.07,.02-.14,.05-.21,.07l-.83,.38c-.07,.03-.13,.05-.2,.07h-.02c-.07,.03-.14,.06-.22,.08l-1.3,.51Z"/><path class="cls-11" d="M79.03,103.16l-.22,.05,.22-.05Z"/><path class="cls-11" d="M79.66,103.1l-.22,.05,.22-.05Z"/><path class="cls-11" d="M80.68,103.04l-.22,.05,.22-.05Z"/><path class="cls-11" d="M81.08,103.04l-.23,.05,.23-.05Z"/><path class="cls-11" d="M81.7,102.99l-.2,.04,.2-.04Z"/><path class="cls-11" d="M82.1,103l-.21,.04,.21-.04Z"/><path class="cls-11" d="M86.53,133.13l.22-.07-.22,.07Z"/><path class="cls-11" d="M86.77,133.05l.2-.07-.2,.07Z"/><path class="cls-11" d="M87.8,132.61l.21-.07-.21,.07Z"/><path class="cls-11" d="M88.83,132.14l.19-.06-.19,.06Z"/><path class="cls-11" d="M89.39,131.86l.21-.08-.21,.08Z"/><path class="cls-11" d="M91.06,130.95l.2-.08-.2,.08Z"/><path class="cls-11" d="M91.62,130.64l.19-.08-.19,.08Z"/><path class="cls-11" d="M91.94,130.42l.2-.08-.2,.08Z"/><path class="cls-11" d="M92.81,129.87l.19-.08-.19,.08Z"/><path class="cls-11" d="M93.13,129.65l.19-.08-.19,.08Z"/><path class="cls-11" d="M93.45,129.42l.19-.08-.19,.08Z"/><path class="cls-11" d="M93.77,129.19l.19-.08-.19,.08Z"/><path class="cls-11" d="M94.09,128.96l.19-.08-.19,.08Z"/><path class="cls-11" d="M95.14,128.12l.19-.09-.19,.09Z"/><path class="cls-16" d="M69.89,127.42c.27-.61,.38-1.25,.71-1.82,.26-.44,.35-.51,.85-.38,1,.26,2.02,.33,3.05,.32,.73,0,1.46-.08,2.19-.13,.17-.01,.34-.08,.51-.14,.16-.05,.24-.18,.2-.34-.17-.86-.35-1.72-.54-2.58-.09-.4-.23-.79-.27-1.2-.02-.19-.15-.31-.36-.3-.29,.01-.59,.02-.88,.03-1.43,.02-2.87,.1-4.29-.21-.82-.18-1.5-.65-2.21-1.05-.02-.01-.04-.04-.06-.06-.65-.63-.92-2.2-.57-3.05,.57-1.39,1.58-2.38,2.84-3.13,.88-.52,1.8-.98,2.79-1.28,.39-.12,.42-.18,.31-.57-.13-.51-.31-1.01-.34-1.54-.02-.28,.01-.35,.3-.44,.39-.12,.79-.24,1.18-.34,.48-.12,.97-.22,1.46-.32,.28-.06,.37-.01,.45,.27,.13,.42,.23,.84,.3,1.28,.11,.74,.17,.74,.92,.65,1.93-.23,3.86-.2,5.76,.2,.32,.07,.38,.19,.25,.5-.19,.49-.37,.99-.59,1.46-.23,.5-.25,.48-.79,.39-1.42-.25-2.84-.42-4.28-.27-.15,.01-.29,.04-.44,.06-.35,.05-.4,.11-.32,.46,.26,1.14,.51,2.28,.8,3.42,.22,.87,.15,.82,1.05,.77,1.37-.08,2.75-.15,4.11,.12,.6,.12,1.19,.28,1.73,.59,1.36,.76,1.87,2.22,1.27,3.68-.35,.86-.88,1.57-1.63,2.12-1.07,.79-2.18,1.48-3.47,1.86-.06,.02-.11,.04-.17,.06-.41,.16-.44,.23-.4,.65,.04,.5,.2,.97,.32,1.46,.1,.41,.08,.49-.29,.58-.91,.22-1.83,.41-2.74,.6-.27,.06-.37-.03-.43-.3-.12-.48-.21-.97-.34-1.45-.11-.41-.23-.48-.63-.4-1.62,.29-3.26,.33-4.9,.25-.7-.04-1.4-.12-2.08-.32-.11-.03-.21-.08-.34-.14Z"/><path class="cls-8" d="M73.14,117.92c-.86-.41-.88-1.21-.67-1.9,.05-.16,.15-.32,.26-.45,.51-.58,1.15-.99,1.88-1.23,.25-.08,.4,0,.46,.25,.26,1.11,.51,2.22,.77,3.33,.04,.16,.02,.32-.17,.34-.85,.06-1.69-.06-2.51-.3-.03,0-.05-.03-.04-.02Z"/><path class="cls-15" d="M82.71,122.97c-.05,.05-.14,.17-.23,.28-.44,.49-.99,.81-1.57,1.1-.27,.14-.43,.06-.52-.25-.13-.45-.23-.9-.34-1.36-.13-.54-.26-1.08-.35-1.62-.06-.32,.07-.45,.37-.45,.7,0,1.39,.1,2.07,.28,.08,.02,.17,.06,.23,.12,.48,.37,.67,1.3,.34,1.91Z"/></g><g><path class="cls-16" d="M314.26,118.55c.18,.01,.36,.03,.55,.03,2.85,0,5.57,.62,8.21,1.65,1.76,.68,3.39,1.59,4.88,2.75,.64,.5,1.26,1.03,1.79,1.65,.77,.9,1.46,1.84,1.92,2.95,.43,1.06,.67,2.15,.59,3.3-.03,.36-.05,.73-.08,1.09,0,.1,0,.2-.07,.28-.03,.06-.04,.12-.04,.18h0c-.48,1.94-1.67,3.39-3.25,4.55-3.06,2.24-6.56,3.12-10.28,3.28-2.02,.09-4.05-.03-6.04-.41-.2-.04-.39-.06-.58-.14-.12-.07-.22-.18-.37-.2-.05-.01-.1-.03-.14-.04-2.35-.68-4.57-1.62-6.58-3.02-1.89-1.33-3.5-2.92-4.43-5.07-1.24-2.86-.84-5.52,1.14-7.92,1.56-1.9,3.63-3.02,5.9-3.82,2.23-.79,4.53-1.12,6.89-1.09Z"/><path class="cls-17" d="M311.8,139.58c.62,.19,1.27,.26,1.9,.35,1.19,.17,2.38,.21,3.58,.23,1.77,.03,3.51-.17,5.24-.56,1.28-.29,2.53-.7,3.72-1.26,.81-.38,1.58-.82,2.31-1.36,.4-.3,.79-.6,1.15-.95,.92-.89,1.64-1.91,2.08-3.12,.06-.17,.09-.36,.23-.49,0,.1,0,.2,0,.29-.1,.87-.21,1.75-.32,2.62-.17,1.33-.74,2.46-1.61,3.47-1.26,1.45-2.87,2.39-4.63,3.09-1.74,.7-3.55,1.11-5.4,1.3-4.72,.48-9.27-.17-13.64-2.03-1.67-.71-3.23-1.63-4.62-2.8-1.14-.96-2.11-2.06-2.78-3.41-.62-1.24-.86-2.53-.67-3.91,.11-.77,.19-1.55,.29-2.32,.02-.14-.01-.3,.12-.41,.22,.18,.17,.46,.21,.69,.34,2.29,1.51,4.11,3.18,5.66,2.59,2.4,5.7,3.79,9.06,4.69,.11,.03,.22,.07,.33,.1h0c.11,.02,.21,.03,.29,.12Z"/><path class="cls-11" d="M316.91,138.4c-.51,.06-1.03,.02-1.54-.04-.64-.07-1.28-.15-1.92-.26-1.34-.24-2.66-.56-3.94-1.04-1.42-.53-2.76-1.22-3.99-2.11-.56-.41-1.11-.83-1.57-1.36-.24-.28-.5-.53-.74-.81-.94-1.12-1.57-2.39-1.7-3.85-.13-1.48,.22-2.85,1.11-4.08,.43-.6,.91-1.14,1.48-1.6,.53-.42,1.09-.81,1.69-1.12,1.19-.63,2.45-1.09,3.77-1.38,.78-.17,1.56-.31,2.35-.38,.76-.07,1.52-.13,2.28-.09,.71,.03,1.43,.03,2.14,.11,.92,.11,1.84,.23,2.73,.5,.49,.29,1.06,.37,1.58,.56,2.54,.92,4.76,2.31,6.43,4.44,2.08,2.66,2.24,5.89-.02,8.49-1.28,1.48-2.94,2.41-4.77,3.06-1.66,.59-3.37,.87-5.13,.89-.1,0-.2-.01-.27,.08Z"/><path class="cls-9" d="M316.91,138.4c0-.11,.06-.16,.15-.15,.45,.03,.89-.05,1.33-.09,.73-.07,1.44-.2,2.15-.37,.24-.06,.49-.09,.73-.16,1.21-.39,2.39-.85,3.5-1.51,.81-.49,1.51-1.08,2.14-1.75,.68-.71,1.15-1.56,1.43-2.52,.12-.44,.17-.88,.23-1.31,.05-.34-.03-.69-.06-1.03-.08-.89-.39-1.71-.82-2.48-.29-.52-.6-1.02-1.03-1.45-.15-.15-.3-.31-.44-.48-.46-.57-1.06-.99-1.62-1.44-.52-.41-1.09-.75-1.67-1.06-.59-.32-1.19-.65-1.84-.87-.53-.18-1.04-.43-1.59-.56-.13-.03-.25-.09-.37-.15-.03-.01-.03-.08-.04-.13l.22,.07s.09,0,.13,.01l.22,.07s.08,0,.12,.01l.43,.15s.08,0,.12,.02l.08,.06s.09,.01,.13,.02l.22,.08s.08,0,.12,.02l.09,.06s.08,0,.12,.02l.09,.06s.08,0,.12,.02l.09,.06s.08,0,.12,.02l.09,.06s.08,0,.12,.02l.09,.06s.08,0,.12,.02l.09,.06s.08,0,.12,.02l.36,.2s.08,.02,.13,.02l.08,.06s.08,0,.12,.02l.15,.12s.08,.02,.13,.03l.08,.07s.08,0,.12,.02l.15,.13s.08,.02,.12,.02l.15,.13s.08,.02,.12,.03l.15,.13s.08,.02,.12,.03l.15,.13s.08,.01,.12,.02l.22,.19s.08,.02,.13,.03l.15,.14c.08,0,.12,.08,.19,.09,.43,.33,.87,.66,1.3,.99,.1,.08,.19,.18,.29,.28,.34,.36,.69,.72,1.01,1.1,.92,1.08,1.55,2.31,1.72,3.73,.14,1.21-.04,2.37-.61,3.47-.55,1.05-1.33,1.9-2.26,2.61-.94,.71-1.97,1.27-3.09,1.66-.03,.01-.06,.03-.09,.04-.04,0-.08,0-.12,0l-.6,.24s-.08,0-.12,0l-.1,.06s-.08,0-.12,0l-.1,.06s-.08,0-.12,0l-.1,.06s-.08,0-.12,0l-.1,.05s-.08,0-.11,0l-.45,.12h-.12l-.1,.06s-.08,0-.12,0l-.23,.06s-.08,0-.12,0c-.31,.1-.63,.12-.94,.16-.04,0-.08,0-.12,0l-.24,.05s-.08,0-.11,0l-.52,.05s-.08,0-.12,0l-.51,.04s-.08,0-.12,0h-.01s-.09,0-.13,0l-.79,.02Z"/><path class="cls-11" d="M319.44,120.96h0Z"/><path class="cls-11" d="M319.78,121.05h0Z"/><path class="cls-11" d="M320.34,121.21l-.12-.02,.12,.02Z"/><path class="cls-11" d="M320.55,121.29l-.13-.02,.13,.02Z"/><path class="cls-11" d="M320.89,121.38l-.12-.02,.12,.02Z"/><path class="cls-11" d="M321.1,121.46l-.12-.02,.12,.02Z"/><path class="cls-11" d="M317.7,138.38h0Z"/><path class="cls-11" d="M317.85,138.38h0Z"/><path class="cls-11" d="M318.48,138.34h0Z"/><path class="cls-11" d="M319.12,138.29h0Z"/><path class="cls-11" d="M319.47,138.25h0Z"/><path class="cls-11" d="M320.54,138.08h0Z"/><path class="cls-11" d="M320.9,138.02h0Z"/><path class="cls-11" d="M321.11,137.96h0Z"/><path class="cls-11" d="M321.68,137.84h0Z"/><path class="cls-11" d="M321.89,137.78h0Z"/><path class="cls-11" d="M322.11,137.72h0Z"/><path class="cls-11" d="M322.32,137.66h0Z"/><path class="cls-11" d="M322.54,137.6h0Z"/><path class="cls-11" d="M323.25,137.35h0Z"/><path class="cls-16" d="M309.92,132.15c.26-.28,.44-.6,.73-.83,.22-.18,.28-.2,.52-.04,.48,.33,1.02,.56,1.56,.75,.39,.14,.79,.24,1.19,.35,.09,.03,.2,.02,.3,.02,.1,0,.16-.05,.17-.14,.07-.49,.14-.98,.2-1.48,.03-.23,.03-.46,.09-.69,.03-.11-.02-.19-.14-.23-.16-.05-.32-.1-.47-.15-.77-.26-1.55-.5-2.25-.93-.4-.25-.68-.63-.98-.98-.01-.01-.01-.03-.02-.04-.23-.46-.07-1.35,.28-1.74,.57-.64,1.3-.97,2.11-1.13,.57-.11,1.15-.18,1.73-.15,.23,.01,.26-.02,.28-.25,.03-.3,.03-.6,.11-.89,.04-.15,.07-.19,.24-.18,.23,0,.47,.02,.7,.04,.28,.03,.56,.07,.84,.11,.16,.02,.2,.06,.19,.23-.01,.25-.04,.49-.09,.74-.08,.42-.05,.43,.36,.52,1.07,.25,2.09,.63,3.04,1.21,.16,.1,.16,.17,.04,.32-.2,.22-.38,.46-.59,.67-.22,.22-.22,.21-.5,.05-.71-.41-1.43-.77-2.23-.96-.08-.02-.16-.04-.24-.05-.2-.04-.23-.01-.26,.18-.08,.66-.16,1.32-.23,1.98-.05,.5-.08,.47,.41,.61,.75,.22,1.5,.44,2.17,.85,.3,.18,.58,.38,.81,.65,.58,.66,.57,1.54-.02,2.21-.35,.39-.77,.67-1.28,.82-.72,.22-1.45,.38-2.2,.33-.03,0-.07,0-.1,0-.25,0-.28,.04-.34,.27-.07,.28-.08,.56-.11,.84-.02,.24-.05,.28-.27,.26-.53-.06-1.05-.13-1.58-.2-.15-.02-.19-.09-.17-.24,.03-.28,.08-.56,.1-.84,.02-.24-.03-.3-.26-.34-.92-.15-1.8-.45-2.66-.81-.37-.15-.72-.33-1.05-.57-.05-.04-.09-.08-.16-.14Z"/><path class="cls-8" d="M313.47,127.71c-.38-.38-.24-.81,0-1.14,.06-.08,.14-.14,.23-.19,.38-.21,.8-.31,1.24-.3,.15,0,.21,.08,.2,.22-.07,.64-.15,1.28-.22,1.92-.01,.09-.05,.18-.15,.15-.47-.13-.89-.35-1.28-.64-.01,0-.02-.02-.02-.02Z"/><path class="cls-15" d="M317.61,132.23s-.11,.06-.18,.1c-.33,.18-.69,.24-1.05,.29-.17,.02-.24-.05-.23-.23,.02-.26,.05-.53,.08-.79,.04-.31,.07-.62,.12-.93,.03-.18,.12-.23,.28-.17,.38,.13,.72,.32,1.05,.55,.04,.03,.08,.07,.1,.11,.19,.29,.11,.82-.18,1.09Z"/></g></g></g></g></svg>